<svg width="200" height="200" viewBox="0 0 200 200" fill="none" xmlns="http://www.w3.org/2000/svg">
  <!-- Background Circle -->
  <circle cx="100" cy="100" r="90" fill="#2563eb"/>
  
  <!-- Team Icon - Three People -->
  <g transform="translate(100, 100)">
    <!-- Person 1 (Center) -->
    <circle cx="0" cy="-15" r="12" fill="white"/>
    <path d="M -15 10 Q -15 -5 0 -5 Q 15 -5 15 10 L 15 25 Q 15 30 10 30 L -10 30 Q -15 30 -15 25 Z" fill="white"/>
    
    <!-- Person 2 (Left) -->
    <circle cx="-30" cy="-5" r="10" fill="white" opacity="0.8"/>
    <path d="M -42 15 Q -42 0 -30 0 Q -18 0 -18 15 L -18 25 Q -18 28 -21 28 L -39 28 Q -42 28 -42 25 Z" fill="white" opacity="0.8"/>
    
    <!-- Person 3 (Right) -->
    <circle cx="30" cy="-5" r="10" fill="white" opacity="0.8"/>
    <path d="M 18 15 Q 18 0 30 0 Q 42 0 42 15 L 42 25 Q 42 28 39 28 L 21 28 Q 18 28 18 25 Z" fill="white" opacity="0.8"/>
  </g>
  
  <!-- Checkmark accent -->
  <path d="M 140 60 L 150 70 L 170 45" stroke="white" stroke-width="6" stroke-linecap="round" stroke-linejoin="round" fill="none"/>
</svg>
