<svg width="400" height="100" viewBox="0 0 400 100" fill="none" xmlns="http://www.w3.org/2000/svg">
  <!-- Logo Icon -->
  <circle cx="50" cy="50" r="40" fill="#2563eb"/>
  <g transform="translate(50, 50)">
    <circle cx="0" cy="-10" r="8" fill="white"/>
    <path d="M -10 5 Q -10 -3 0 -3 Q 10 -3 10 5 L 10 15 Q 10 18 7 18 L -7 18 Q -10 18 -10 15 Z" fill="white"/>
    <circle cx="-20" cy="-3" r="6" fill="white" opacity="0.8"/>
    <path d="M -28 10 Q -28 0 -20 0 Q -12 0 -12 10 L -12 16 Q -12 18 -14 18 L -26 18 Q -28 18 -28 16 Z" fill="white" opacity="0.8"/>
    <circle cx="20" cy="-3" r="6" fill="white" opacity="0.8"/>
    <path d="M 12 10 Q 12 0 20 0 Q 28 0 28 10 L 28 16 Q 28 18 26 18 L 14 18 Q 12 18 12 16 Z" fill="white" opacity="0.8"/>
  </g>
  
  <!-- Text -->
  <text x="110" y="60" font-family="Arial, sans-serif" font-size="36" font-weight="bold" fill="#1f2937">TeamLead</text>
</svg>
